<svg height='100px' width='100px'  fill="#FFFFFF" version="1.1" xmlns:dc="http://purl.org/dc/elements/1.1/" xmlns:cc="http://creativecommons.org/ns#" xmlns:svg="http://www.w3.org/2000/svg" xmlns:rdf="http://www.w3.org/1999/02/22-rdf-syntax-ns#" xmlns="http://www.w3.org/2000/svg" xmlns:xlink="http://www.w3.org/1999/xlink" x="0px" y="0px" viewBox="23.465 -15.016 53.069 100" enable-background="new 23.465 -15.016 53.069 100" xml:space="preserve"><path d="M59.858-15.016c-9.208,0-16.674,7.466-16.674,16.675c0,9.21,7.466,16.675,16.674,16.675
	c9.211,0,16.676-7.465,16.676-16.675C76.534-7.55,69.069-15.016,59.858-15.016z M59.858-6.678c4.605,0,8.338,3.733,8.338,8.337
	s-3.732,8.338-8.338,8.338c-4.604,0-8.337-3.733-8.337-8.338S55.255-6.678,59.858-6.678z"></path><rect x="23.465" y="-15.016" width="8.338" height="33.351"></rect><path d="M33.585,35.062V65.6c-0.143,0.876-0.261,1.791-0.261,2.709c0,9.211,7.466,16.676,16.675,16.676
	c9.211,0,16.676-7.465,16.676-16.676c0-0.918-0.117-1.833-0.261-2.709V35.062h-8.338v18.604C55.69,52.347,52.92,51.634,50,51.634
	c-2.919,0-5.689,0.713-8.077,2.032V35.062H33.585L33.585,35.062z"></path></svg>